  0
SECTION
  2
HEADER
  9
$ACADVER
  1
AC1009
  9
$INSUNITS
  70
4
  9
$EXTMIN
  10
-42.5
  20
0
  9
$EXTMAX
  10
0
  20
20.3
  0
ENDSEC
  0
SECTION
  2
TABLES
  0
TABLE
  2
LTYPE
  70
1
  0
LTYPE
  2
CONTINUOUS
  70
64
  3
Solid line
  72
65
  73
0
  40
0
  0
ENDTAB
  0
TABLE
  2
LAYER
  70
3
  0
LAYER
  2
Default
  70
0
  62
1
  6
CONTINUOUS
  0
LAYER
  2
Via
  70
0
  62
136
  6
CONTINUOUS
  0
LAYER
  2
Copper
  70
0
  62
136
  6
CONTINUOUS
  0
ENDTAB
  0
ENDSEC
  0
SECTION
  2
BLOCKS
  0
BLOCK
  2
Antenna
  3
Antenna
  10
0
  20
0
  70
0
  0
CIRCLE
  8
Via
  10
-40.1
  20
11.2
  40
0.2
  0
CIRCLE
  8
Via
  10
-40.1
  20
12.1
  40
0.2
  0
CIRCLE
  8
Via
  10
-28.8
  20
14
  40
0.2
  0
CIRCLE
  8
Via
  10
-37.8
  20
10.4
  40
0.2
  0
CIRCLE
  8
Via
  10
-32.4
  20
14
  40
0.2
  0
CIRCLE
  8
Via
  10
-32.4
  20
14
  40
0.2
  0
CIRCLE
  8
Via
  10
-37.8
  20
10.4
  40
0.2
  0
CIRCLE
  8
Via
  10
-41
  20
13.9
  40
0.2
  0
CIRCLE
  8
Via
  10
-30.6
  20
14
  40
0.2
  0
CIRCLE
  8
Via
  10
-34.2
  20
14
  40
0.2
  0
CIRCLE
  8
Via
  10
-32.4
  20
14
  40
0.2
  0
CIRCLE
  8
Via
  10
-37.8
  20
12.2
  40
0.2
  0
CIRCLE
  8
Via
  10
-40.1
  20
12.1
  40
0.2
  0
CIRCLE
  8
Via
  10
-40.1
  20
10.3
  40
0.2
  0
CIRCLE
  8
Via
  10
-35.1
  20
14
  40
0.2
  0
CIRCLE
  8
Via
  10
-37.8
  20
14
  40
0.2
  0
CIRCLE
  8
Via
  10
-37.8
  20
14
  40
0.2
  0
CIRCLE
  8
Via
  10
-37.8
  20
14
  40
0.2
  0
CIRCLE
  8
Via
  10
-36
  20
14
  40
0.2
  0
CIRCLE
  8
Via
  10
-30.6
  20
14
  40
0.2
  0
CIRCLE
  8
Via
  10
-30.6
  20
14
  40
0.2
  0
CIRCLE
  8
Via
  10
-27.9
  20
14
  40
0.2
  0
CIRCLE
  8
Via
  10
-37.8
  20
13.1
  40
0.2
  0
CIRCLE
  8
Via
  10
-34.2
  20
14
  40
0.2
  0
CIRCLE
  8
Via
  10
-40.1
  20
10.3
  40
0.2
  0
CIRCLE
  8
Via
  10
-36
  20
14
  40
0.2
  0
CIRCLE
  8
Via
  10
-37.8
  20
10.4
  40
0.2
  0
CIRCLE
  8
Via
  10
-34.2
  20
14
  40
0.2
  0
CIRCLE
  8
Via
  10
-29.7
  20
14
  40
0.2
  0
CIRCLE
  8
Via
  10
-37.8
  20
11.3
  40
0.2
  0
CIRCLE
  8
Via
  10
-31.5
  20
14
  40
0.2
  0
CIRCLE
  8
Via
  10
-33.3
  20
14
  40
0.2
  0
CIRCLE
  8
Via
  10
-41
  20
13
  40
0.2
  0
CIRCLE
  8
Via
  10
-28.8
  20
14
  40
0.2
  0
CIRCLE
  8
Via
  10
-36.9
  20
14
  40
0.2
  0
CIRCLE
  8
Via
  10
-40.1
  20
13.9
  40
0.2
  0
CIRCLE
  8
Via
  10
-37.8
  20
12.2
  40
0.2
  0
CIRCLE
  8
Via
  10
-40.1
  20
10.3
  40
0.2
  0
CIRCLE
  8
Via
  10
-37.8
  20
12.2
  40
0.2
  0
CIRCLE
  8
Via
  10
-28.8
  20
14
  40
0.2
  0
CIRCLE
  8
Via
  10
-40.1
  20
12.1
  40
0.2
  0
CIRCLE
  8
Via
  10
-36
  20
14
  40
0.2
  0
CIRCLE
  8
Via
  10
-40.1
  20
13
  40
0.2
  0
POLYLINE
  8
Copper
  70
1
  66
1
  0
VERTEX
  8
Copper
  10
-42.5
  20
14.7
  0
VERTEX
  8
Copper
  10
-42.5
  20
9.7
  0
VERTEX
  8
Copper
  10
-39.6
  20
9.7
  0
VERTEX
  8
Copper
  10
-39.6
  20
14.7
  0
SEQEND
  0
POLYLINE
  8
Copper
  70
1
  66
1
  0
VERTEX
  8
Copper
  10
-38.7
  20
15.6
  0
VERTEX
  8
Copper
  10
-27.9
  20
15.6
  0
VERTEX
  8
Copper
  10
-27.9
  20
15.1
  0
VERTEX
  8
Copper
  10
-38.7
  20
15.1
  0
VERTEX
  8
Copper
  10
-38.4
  20
14.5
  0
VERTEX
  8
Copper
  10
-38.4
  20
9.7
  0
VERTEX
  8
Copper
  10
-39.5
  20
9.7
  0
VERTEX
  8
Copper
  10
-39.5
  20
14.5
  0
VERTEX
  8
Copper
  10
-39.2
  20
15.1
  0
VERTEX
  8
Copper
  10
-39.2
  20
20.3
  0
VERTEX
  8
Copper
  10
-37.6
  20
20.3
  0
VERTEX
  8
Copper
  10
-37.6
  20
16.5
  0
VERTEX
  8
Copper
  10
-37
  20
16.5
  0
VERTEX
  8
Copper
  10
-37
  20
20.3
  0
VERTEX
  8
Copper
  10
-35.4
  20
20.3
  0
VERTEX
  8
Copper
  10
-35.4
  20
16.5
  0
VERTEX
  8
Copper
  10
-34.8
  20
16.5
  0
VERTEX
  8
Copper
  10
-34.8
  20
20.3
  0
VERTEX
  8
Copper
  10
-33.2
  20
20.3
  0
VERTEX
  8
Copper
  10
-33.2
  20
16.5
  0
VERTEX
  8
Copper
  10
-32.6
  20
16.5
  0
VERTEX
  8
Copper
  10
-32.6
  20
20.3
  0
VERTEX
  8
Copper
  10
-27.9
  20
20.3
  0
VERTEX
  8
Copper
  10
-27.9
  20
19.8
  0
VERTEX
  8
Copper
  10
-32.1
  20
19.8
  0
VERTEX
  8
Copper
  10
-32.1
  20
16
  0
VERTEX
  8
Copper
  10
-33.7
  20
16
  0
VERTEX
  8
Copper
  10
-33.7
  20
19.8
  0
VERTEX
  8
Copper
  10
-34.3
  20
19.8
  0
VERTEX
  8
Copper
  10
-34.3
  20
16
  0
VERTEX
  8
Copper
  10
-35.9
  20
16
  0
VERTEX
  8
Copper
  10
-35.9
  20
19.8
  0
VERTEX
  8
Copper
  10
-36.5
  20
19.8
  0
VERTEX
  8
Copper
  10
-36.5
  20
16
  0
VERTEX
  8
Copper
  10
-38.1
  20
16
  0
VERTEX
  8
Copper
  10
-38.1
  20
19.8
  0
VERTEX
  8
Copper
  10
-38.7
  20
19.8
  0
SEQEND
  0
POLYLINE
  8
Copper
  70
1
  66
1
  0
VERTEX
  8
Copper
  10
-38.3
  20
14.7
  0
VERTEX
  8
Copper
  10
-38.3
  20
9.7
  0
VERTEX
  8
Copper
  10
-26.8
  20
9.7
  0
VERTEX
  8
Copper
  10
-26.8
  20
14.7
  0
SEQEND
  0
ENDBLK
  0
ENDSEC
  0
SECTION
  2
ENTITIES
  0
INSERT
  8
Default
  2
Antenna
  10
0
  20
0
  50
0
  41
1
  42
1
  0
ENDSEC
  0
EOF
